<svg xmlns="http://www.w3.org/2000/svg" viewBox="0 0 1000 1000" style="display:block"><path style="fill:#89e34d" transform="translate(498 19)" d="m0 0 5 1 18 14 19 14 18 14 19 14 21 16 21 16 19 14 13 10 6 5 19 41 16 36 19 41 16 36 18 39 9 21 16 47 15 43 14 42 15 43-1 9-23 76-29 96-26 86-7 23-29 43-29 44-13 19-27 9-71 22-58 18-12-3-70-22-55-17-21-7-11-10-11-9-12-11-11-9-12-11-11-9-12-11-11-9-11-10-11-9-10-9-8-64-26-215v-10l23-68 15-43 14-42 10-28 13-28 16-36 19-41 16-36 18-39 13-29 21-16 16-12 21-16 19-14 18-14 19-14 21-16Z"/><path style="fill:#64c972" transform="translate(342 138)" d="M0 0h3l1 213 17 29 7 11 12 20 8 13 17 28 19 32 12 19 15 25-2 20-7 47-2 15-4 25-3 22-5 33-8 54-2 15-5 37-2 14v5l28 16 25 15 11 6 26 15 24 14 28 16 26 15 14 8 5-2 10-9 11-9 13-11 10-8 15-13 11-9 14-12 10-8 11-9 13-11 5-4 2 1-3 1-2 5-7 11-2 4h-2l-2 6-6 8-4 7-7 11-4 6-1 3h-2l-2 5-4 9-20 30-27 9-71 22-58 18-12-3-70-22-55-17-21-7-11-10-11-9-12-11-11-9-12-11-11-9-12-11-11-9-11-10-11-9-10-9-8-64-26-215v-10l23-68 15-43 14-42 10-28 13-28 16-36 19-41 16-36 18-39Z"/><path style="fill:#71d862" transform="translate(497 20)" d="M0 0h3v120l-7 56-12 101-14 116-12 101v15l9 6 14 9 13 8 13 8 11 7 13 8 13 8 11 7 16 10 14 9 7 4 8 5 9 14 11 17 13 20 8 12 12 19 8 12 11 17 13 20 17 26 15 23 9 14 2 1 2-10 11-35 8-27 7-21 8-27 6-16 2 4-21 69-20 66-29 43-19 29-1-4 4-6h2l1-5 6-8 5-9 6-9 6-10h2l1-4 7-11 3-5 1-1h-2l-1 3-9 7-14 12-14 11-15 13-13 11-11 9-14 12-11 9-17 14-5 4-6-2-24-14-28-16-24-14-21-12-25-15-11-6-26-15-20-12 1-15 3-18 3-23 3-21 7-48 6-39 4-30 2-11 2-15 7-47 2-20-9-15-11-18-17-28-17-28-9-15-9-15-9-15-10-16-10-17-6-10V118h-2l1-3 19-14 18-14 19-14 21-16 20-15 21-16 16-12Z"/><path style="fill:#b8cc4c" transform="translate(498 19)" d="m0 0 5 1 18 14 19 14 18 14 19 14 21 16 21 16 19 14 13 10 6 5 19 41 16 36 19 41 16 36 18 39 9 21 16 47 15 43 14 42 15 43-1 9-2 7h-1v-8l-12 17-10 15-12 17-11 16-12 17-2-1-7-20-3-8-9-25v-4h-2l-4-13-3-9-9-24-8-23-9-25-3-8-4-11-8-23-3-8-15-42-3-9-4-9-2-5-14-19-13-18-14-19-11-15-14-19-7-9v-2h-2l-4-7-9-12-11-15-11-15-12-16-4-6-12-16-14-19-3-4V1Z"/><path style="fill:#78dc5b" transform="translate(497 20)" d="M0 0h3v120l-7 56-12 101-14 116-12 101-1 15-4-4-10-17-13-21-19-32-10-16-9-15-9-15-9-15-10-16-10-17-6-10V118h-2l1-3 19-14 18-14 19-14 21-16 20-15 21-16 16-12Zm-43 509Z"/><path style="fill:#4d7e9a" transform="translate(187 530)" d="m0 0 4 4 8 12 11 16 16 23 11 16 11 16v2l3 1 2 5 3 1 2 5 3 1 2 5h2l7 9 11 13 9 11 13 15 7 9v2l3 1 6 8 6 7v2h2l3 4v2h2l7 9 13 15 8 10 9 11v2h2l8 10v2l3 1 2 5h2l3 4v2h2l3 4v2h2l7 9 6 7v15l-7 94h248v2l-70 22-55 17-26 8-12-3-70-22-55-17-21-7-11-10-11-9-12-11-11-9-12-11-11-9-12-11-11-9-11-10-11-9-10-9-8-64L0 14Z"/><path style="fill:#96e147" transform="translate(655 349)" d="m0 0 2 1 3 8 4 13 5 12 12 34 7 20 5 15 3 6 3 9 15 41 7 20 5 16 4 9v5h2l8 24 4 12 4 10 4 11 4-4 10-15 9-13 12-17 8-12 13-19 3-3-1 13-20 66-20 66-4 5-6 18-6 20-9 28-11 36-7 22-2 7-3-1-7-11-17-26-17-26-9-14-13-20-17-26-7-11-13-20-13-20-12-18 1-10 5-26 4-15 7-34 3-13 6-26 3-16 4-16 5-22 3-16 7-32 4-16Z"/><path style="fill:#58ac86" transform="translate(342 138)" d="M0 0h2v213l-5 14-6 17-4 11-5 14-5 14-5 14-4 10-7 21-3 8-5 14-4 11-5 13-7 21-5 12-5 16-3 8-5 14-4 10-3 10-3 8-2 8-4-5-7-10-16-23-13-19-11-16-10-15-1 5h-1v-10l23-68 15-43 14-42 10-28 13-28 16-36 19-41 16-36 18-39Z"/><path style="fill:#add746" transform="translate(498 19)" d="m0 0 5 1 18 14 19 14 18 14 19 14 21 16 21 16 19 14 13 10 5 4v213l-4-4-13-18-14-19-13-18-9-12-14-19-7-9v-2h-2l-4-7-9-12-11-15-11-15-12-16-4-6-12-16-14-19-3-4V1Z"/><path style="fill:#4968a0" transform="translate(225 815)" d="M0 0h186v13l-7 94h248v2l-70 22-55 17-26 8-12-3-70-22-55-17-21-7-11-10-11-9-12-11-11-9-12-11-11-9-12-11-11-9-11-10L5 9 0 2Z"/><path style="fill:#69d06b" transform="translate(767 677)" d="m0 0 2 4-21 69-20 66-29 43-19 29-1-4 4-6h2l1-5 6-8 5-9 6-9 6-10h2l1-4 7-11 3-5 1-1h-2l-1 3-9 7-14 12-14 11-15 13-13 11-11 9-14 12-11 9-17 14-5 4-6-2-24-14-28-16-24-14-21-12-25-15-11-6-26-15-20-12v-1h91l221-1 7-23 9-29 7-22 6-19 8-27Z"/><path style="fill:#85e14f" transform="translate(597 618)" d="M0 0h155l-5 40-2 10-5 39-3 21-8 58-2 12h2l-3 13-1 2-3-1-7-11-17-26-17-26-9-14-13-20-17-26-7-11-13-20-13-20L0 2Z"/><path style="fill:#58ad86" transform="translate(411 814)" d="m0 0 14 8 23 13 18 11 11 6 26 15 24 14 28 16 26 15 14 8 5-2 10-9 11-9 13-11 10-8 15-13 11-9 14-12 10-8 11-9 13-11 5-4 2 1-3 1-2 5-7 11-2 4h-2l-2 6-6 8-4 7-7 11-4 6-1 3h-2l-2 5-4 9-20 30-5 1-248-1V94Z"/><path style="fill:#80de56" transform="translate(497 20)" d="M0 0h3v120l-1-3h-156l5-5 19-14 18-14 19-14 21-16 21-16 19-14 13-10Z"/><path style="fill:#b8cc4b" transform="translate(498 19)" d="m0 0 5 1 18 14 19 14 18 14 19 14 21 16 21 16 19 14 13 10 5 5H2V1Z"/><path style="fill:#4663a1" transform="translate(343 921)" d="M0 0h61l248 1v2l-70 22-55 17-26 8-12-3-70-22L21 8 0 1Z"/><path style="fill:#4762a3" transform="translate(187 530)" d="m0 0 4 4 8 12 11 16 16 23 11 16 10 15v13l-7 50-6 47-7 48-5 39-3-4L0 14Z"/><path style="fill:#5a9695" transform="translate(723 815)" d="m0 0 2 1-3 1-2 5-7 11-2 4h-2l-2 6-6 8-4 7-7 11-4 6-1 3h-2l-2 5-4 9-20 30-5 1-248-1v-1l193-1 11-9 14-12 11-9 11-9 15-13 11-9 14-12 10-8 11-9L-5 4Z"/><path style="fill:#627dad" transform="translate(329 167)" d="M0 0h1L0 9l-11 27-4 10-35 87-4 10-29 72-5 14-4 8-26 65-5 14-5 11-5 14-4 2 3-11 15-43 28-83 10-28 13-28 16-36 19-41 16-36Z"/><path style="fill:#bdd861" transform="translate(673 174)" d="m0 0 3 4 16 36 19 41 16 36 18 39 9 21 16 47 15 43 14 42 6 17v2h-2l-1-4-2-1-20-50-15-37-12-30-12-30-20-50-15-37-16-40L1 9l1-4-3-1Z"/><path style="fill:#5970aa" transform="translate(343 921)" d="M0 0h61l16 8 34 17 16 8 23 12 3 3-7-1-70-22L21 8 0 1Z"/><path style="fill:#5b73aa" transform="translate(594 922)" d="M0 0h58v2l-70 22-55 17-19 6h-3v-2l34-17 19-10 17-8 16-9Z"/><path style="fill:#91d994" transform="translate(767 677)" d="m0 0 2 4-21 69-20 66-29 43-19 29-1-4 4-6h2l1-5 6-8 5-9 6-9 6-10h2l1-4 7-11 3-5 2-2 3-12 11-35 8-27 7-21 8-27Z"/><path style="fill:#90d98e" transform="translate(767 677)" d="m0 0 2 4-21 69-2 5h-3l2-11 8-24 8-27Z"/><path style="fill:#87b6b3" transform="translate(724 814)" d="M0 0h3L2 5l-29 43-17 26-1-4 4-6h2l1-5 6-8 5-9 6-9 6-10h2l1-4 7-11 3-5 2-2Z"/><path style="fill:#99de90" transform="translate(786 615)" d="m0 0 2 1-3 12-15 49h-1v-9l5-15 3-10 2-4 2-10 3-9Z"/><path style="fill:#88d58d" transform="translate(731 790)" d="M0 0h3L2 10l-5 16-1-2-3-1Z"/><path style="fill:#94db8e" transform="translate(767 677)" d="m0 0 2 4-9 29h-1V23l7-20Z"/><path style="fill:#7296b6" transform="translate(329 167)" d="M0 0h1L0 9l-7 17h-2l-1 2h-2l2-6Z"/><path style="fill:#a3e397" transform="translate(786 615)" d="m0 0 2 1-3 12-6 20h-1l1-9 2-10 3-9Z"/><path style="fill:#7fd07e" transform="translate(748 736)" d="m0 0 2 1v7l-4 11h-3l2-11Z"/><path style="fill:#8dbebc" transform="translate(693 864)" d="m0 0 1 3-14 21-1-4 4-6h2l1-5Z"/><path style="fill:#c7e067" transform="translate(673 174)" d="m0 0 3 4 4 9-1 5-2-1L1 7l1-2-3-1Z"/><path style="fill:#86b8b7" transform="translate(702 850)" d="m0 0 1 3-8 12-2-1 2-5 4-5 1-3Z"/><path style="fill:#85b6ae" transform="translate(724 814)" d="M0 0h3L2 5l-4 6-3-1 2-5 3-4Zm-6 10Z"/><path style="fill:#97dc8e" transform="translate(772 660)" d="M0 0h1v7l-3 10h-1V8Z"/><path style="fill:#7faac2" transform="translate(197 494)" d="m0 0 1 4-2 10-4 2 3-11Z"/><path style="fill:#87b6b2" transform="translate(720 823)" d="m0 0 1 3-5 8-3-1 2-5Zm-8 10Z"/><path style="fill:#7096b5" transform="translate(329 167)" d="M0 0h1L0 9l-2 5-2-1 1-6Z"/><path style="fill:#91d894" transform="translate(734 783)" d="M0 0h2l1 4-2 6-3-2 1-7Z"/><path style="fill:#88b7b5" transform="translate(708 841)" d="m0 0 1 3-5 8-2-4Zm-7 9Z"/><path style="fill:#8cd798" transform="translate(728 806)" d="m0 0 2 4-2 6-1-2-3-1 3-6Z"/><path style="fill:#6db398" transform="translate(342 138)" d="M0 0h2v7l-4 4 1-9Z"/><path style="fill:#5879a2" transform="translate(201 488)" d="m0 0 1 4-4 10-1-4 3-9Z"/><path style="fill:#91c1bf" transform="translate(685 875)" d="m0 0 1 4-6 9-1-4 4-6h2Z"/><path style="fill:#c4ee78" transform="translate(813 526)" d="M0 0h1L0 9l-2 7h-1l1-11Z"/><path style="fill:#a2e2a1" transform="translate(761 697)" d="m0 0 2 4-3 9h-1V5h2Z"/><path style="fill:#86d58b" transform="translate(735 777)" d="M0 0h3v6L1 8V6h-2Z"/><path style="fill:#90db50" transform="translate(727 798)" d="M0 0h2l-3 11h-1l1-10Z"/><path style="fill:#98dd99" transform="translate(744 754)" d="m0 0 2 1-2 8-2-4V1Z"/><path style="fill:#a5e4a6" transform="translate(748 742)" d="M0 0h2l-3 11-2-4Z"/><path style="fill:#82d286" transform="translate(731 790)" d="M0 0h3v6l-4 1Z"/><path style="fill:#d1e875" transform="translate(801 491)" d="m0 0 2 3 2 8H2L1 7l-2-1Z"/><path style="fill:#7992c1" transform="translate(490 965)" d="m0 0 6 3-4 1-6-2Z"/><path style="fill:#7fd07e" transform="translate(741 757)" d="m0 0 2 2v6h-3Z"/><path style="fill:#c2db65" transform="translate(677 185)" d="M0 0h2l1 4-2 3-2-6Z"/><path style="fill:#cbe36b" transform="translate(669 165)" d="m0 0 2 2 2 7-3-1Z"/></svg>