<svg width="48" height="48" xmlns="http://www.w3.org/2000/svg"><path style="fill:#fff" d="M39.69 14.79c.001-.11-.324-.651-.721-1.202-1.041-1.443-2.194-2.147-3.726-2.274-1.141-.095-1.362-.035-1.91.512-.346.346-.618.893-.618 1.242 0 .71.97 1.731 1.764 1.86 1.046.167 5.21.058 5.211-.137zM19.804 47.725c-4.919-.938-8.97-3.012-12.435-6.368C4.195 38.283 2.07 34.79.812 30.573c-.844-2.825-1.077-7.81-.475-10.17.47-1.849 1.693-4.57 2.053-4.57.352 0 .324.207-.251 1.827-.7 1.97-.887 6.268-.388 8.877.417 2.175.779 3.247 1.097 3.247.119 0 .28-.298.357-.661.216-1.015 1.033-2.178 1.902-2.708 1.028-.626 2.595-.63 3.343-.006l.568.473-.549.008c-.903.013-2.092.622-2.536 1.3-1.6 2.441-.575 6.703 2.404 9.993 1.292 1.429 2.867 2.604 3.132 2.34.078-.078-.103-.708-.401-1.4-1.053-2.447-.391-5.838 1.479-7.583.757-.707 2.56-1.485 3.85-1.662 2.829-.388 5.492 1.715 5.492 4.337 0 .985-.407 1.983-.884 2.166-.37.142-.447-.016-.679-1.402-.197-1.179-1.209-2.22-2.368-2.438-1.182-.221-2.982.664-3.62 1.78-1.357 2.369.746 6.528 4.035 7.983 2.737 1.21 6.717 1.536 10.327.845 1.718-.328 4.255-1.383 4.255-1.769 0-.1-.65-.305-1.444-.456-2.977-.565-5.106-2.157-6.394-4.78-.618-1.258-.702-1.689-.702-3.594 0-1.783.1-2.366.563-3.307.823-1.672 2.456-3.226 4.292-4.084 3.441-1.61 7.026-.672 8.484 2.22.936 1.856.773 3.68-.435 4.888-.58.579-.98.743-2.022.83-1.413.117-2.347-.221-3.184-1.153l-.48-.534 1.491.171c1.392.16 1.534.13 2.105-.44.85-.85.79-1.71-.183-2.682-2.861-2.86-7.79.77-6.684 4.924.768 2.886 4.555 4.532 8.075 3.509 1.12-.325 1.68-.685 2.771-1.776 1.73-1.73 2.29-3.192 2.27-5.933-.021-3.064-1.286-5.164-3.994-6.632-1.485-.805-1.588-.824-4.288-.818-3.274.007-4.247.32-7.582 2.435-3.35 2.125-4.484 2.568-6.853 2.681-4.854.231-9.992-2.47-12.082-6.352-1.816-3.374-1.847-7.935-.078-11.518 1.12-2.269 2.637-3.925 5.089-5.556C15.635.798 19.388-.176 24.776.026c2.17.08 3.86.285 5.094.614 9.01 2.404 15.57 9.161 17.67 18.2.656 2.823.603 7.921-.112 10.81-1.039 4.197-3.417 8.376-6.513 11.443-3.007 2.98-6.525 5.008-10.673 6.153-2.767.764-7.743.992-10.438.478z"/></svg>