<svg width="1297.92" height="1576.32" xmlns="http://www.w3.org/2000/svg"><path style="fill:#fff;stroke-width:.96" d="M599.52 1550.38c-52.605-3.705-98.86-11.813-151.2-26.505-35.912-10.081-79.784-27.26-116.286-45.534-70.728-35.408-137.313-84.493-187.445-138.181-19.264-20.63-27.487-30.07-41.812-48-28.253-35.362-33.84-47.648-36.877-81.1-.615-6.78.91-21.213 3.183-30.114 1.065-4.173 4.712-14.23 8.103-22.347 6.6-15.796 45.587-109.53 98.976-237.96A659200.39 659200.39 0 0 1 255.63 729.6c25.6-61.511 57.23-137.543 70.291-168.959 23.575-56.706 104.284-250.713 154.66-371.771 28.943-69.552 27.775-66.948 36.675-81.79 17.14-28.585 40.888-52.103 64.406-63.782 26.82-13.319 44.544-17.177 74.006-16.11 23.088.836 37.267 4.475 58.728 15.073 11.056 5.46 13.531 7.036 23.364 14.878 17.241 13.752 31.36 30.043 42.914 49.515 9.82 16.55 2.3-1.035 98.696 230.787 26.713 64.24 87.864 211.196 165.582 397.92a835330.385 835330.385 0 0 1 149.753 360c18.107 43.56 33.608 82.008 34.449 85.44 6.553 26.775 2.748 56.044-10.245 78.803-7.421 13-27.993 39.26-51.448 65.677-61.336 69.08-141.699 127.27-230.021 166.557-69.653 30.983-141.064 49.416-221.76 57.242-17.809 1.727-97.445 2.62-116.16 1.301zm90.84-166.511c70.05-5.736 133.252-23.387 194.28-54.26 53.25-26.938 84.255-48.746 130.669-91.904 8.67-8.062 28.657-29.252 33.871-35.91l1.978-2.524-9.939-23.876c-5.466-13.131-20.536-49.363-33.49-80.515-23.285-56.001-52.927-127.263-124.79-300-20.319-48.84-49.79-119.688-65.49-157.44-15.701-37.752-48.319-116.16-72.484-174.24a519050.472 519050.472 0 0 1-60.493-145.44c-31.26-75.225-35.286-84.663-35.77-83.852-.268.446-9.012 21.332-19.431 46.412-18.657 44.908-64.195 154.386-122.59 294.72a596225.12 596225.12 0 0 0-52.313 125.76c-37.37 89.88-52.064 125.185-79.71 191.52a134083.365 134083.365 0 0 0-40.567 97.44c-7.789 18.744-25.938 62.376-40.33 96.96-14.394 34.584-30.826 74.1-36.517 87.813l-10.346 24.933 3.99 4.814c7.577 9.14 34.714 36.246 48.133 48.078 37.666 33.211 65.458 52.15 111.386 75.901 61.657 31.885 132.782 51.394 205.433 56.348 13.988.953 59.346.504 74.52-.738zm-362.624-260.342c.354-1.113 14.9-36.31 32.327-78.216 17.427-41.905 39.338-94.658 48.691-117.23l17.006-41.038 11.52-3.775c74.197-24.31 156.09-35.624 236.64-32.69 65.119 2.37 126.364 12.942 183.968 31.754l14.529 4.745 5.816 14.141c3.2 7.778 25.44 61.338 49.423 119.022 23.983 57.684 43.481 104.88 43.33 104.88-.152 0-4.09-2.885-8.751-6.412-48.898-36.994-120.637-71.365-178.96-85.74-40.482-9.978-72.605-14.724-111.123-16.417-55.235-2.428-109.823 3.663-165.067 18.42-22.247 5.942-60.745 20.414-85.125 31.998-28.319 13.456-65.587 36.248-91.133 55.734-3.344 2.551-3.666 2.637-3.09.824z"/></svg>