<svg viewBox="0 0 860 450" xml:space="preserve" xmlns="http://www.w3.org/2000/svg"><g fill="#86c540"><path d="M347.565 378.7c14.726-16.55 22.508-40.74 22.508-73.32v-182h-31.099v28.48h-.384c-5.891-11.03-14.077-19.3-24.573-24.82-10.496-5.515-22.02-8.275-34.56-8.275-17.15 0-31.617 3.271-43.39 9.814s-21.251 14.95-28.415 25.21c-7.17 10.26-12.291 21.55-15.364 33.87-3.072 12.32-4.608 24.38-4.608 36.18 0 13.6 1.854 26.5 5.568 38.68 3.708 12.19 9.275 22.9 16.702 32.14 7.422 9.236 16.642 16.55 27.646 21.94s23.935 8.082 38.79 8.082c6.145 0 12.352-.769 18.618-2.309 6.276-1.539 12.162-3.782 17.67-6.735a59.914 59.914 0 0 0 14.785-11.16c4.35-4.487 7.932-9.813 10.755-15.97h.756v13.08c0 11.29-1.092 21.55-3.265 30.79-2.177 9.237-5.699 17.13-10.556 23.67-4.865 6.543-11.014 11.67-18.427 15.4-7.428 3.717-16.512 5.581-27.257 5.581-5.377 0-11.015-.579-16.901-1.732a65 65 0 0 1-6.197-1.53 422.866 422.866 0 0 1-6.495-2.356c-.2-.085-.398-.172-.597-.259v.036c-84.335-31.57-139.877-85.25-139.877-146.2 0-97.15 141.174-175.9 315.373-175.9 97.026 0 184.075 22.15 241.842 60.59C603.47 45.267 490.22-.023 360.818-.023 162.575-.058 1.846 100.677 1.746 224.877c-.012 84.82 74.867 158.7 185.472 197.1 88.716 3.044 133.692-13.46 160.231-43.27zm-13.39-132.2c-2.176 9.236-5.567 17.51-10.176 24.82-4.606 7.314-10.695 13.22-18.238 17.7-7.554 4.493-16.701 6.735-27.457 6.735-10.755 0-19.714-2.242-26.878-6.735-7.17-4.484-12.93-10.39-17.28-17.7-4.356-7.311-7.427-15.45-9.216-24.44-1.792-8.978-2.687-17.96-2.687-26.94 0-9.489 1.085-18.6 3.263-27.33 2.173-8.719 5.628-16.42 10.366-23.09 4.734-6.669 10.815-11.99 18.238-15.97 7.422-3.975 16.382-5.965 26.878-5.965 10.237 0 18.937 2.057 26.11 6.158 7.163 4.107 12.99 9.561 17.47 16.36 4.475 6.801 7.74 14.43 9.791 22.9a109.441 109.441 0 0 1 3.072 25.79c0 9.238-1.092 18.48-3.264 27.71zM362.63 397.5c-18.807 17.11-52.41 36.65-98.174 44.32 30.64 5.339 62.915 8.194 96.268 8.198 128.903.025 241.843-45.09 305.197-109.1-57.847 38.21-144.467 59.95-241.144 59.95-22.967.002-40.537-.809-62.107-3.41z"/><path d="M561.172 322.9H514.32V164.7h-58.784v-40.23h164.42v40.23h-58.784zM691.272 322.9H644.41V124.5h144.667v40.23h-97.795v37.13h85.603v40.23h-85.603zM397.35 75h32.635v247.3H397.35z"/></g><g fill="#86c540"><path d="M827.28 124.8v5.5h-7.4v19.1h-6.4v-19.1h-7.3v-5.5zM851.58 149.4v-18.7h-.1l-5.2 18.7h-4.9l-5.1-18.7h-.1v18.7h-6.1v-24.6h9.5l4.2 16.4h.1l4.3-16.4h9.4v24.6z"/></g></svg>