<svg xmlns="http://www.w3.org/2000/svg" id="Layer_1" style="enable-background:new 0 0 43.9 43.9" xml:space="preserve" viewBox="0 0 43.9 43.9" version="1.1" y="0" x="0"><style type="text/css" id="style65">.st0{fill:#e82425}</style><switch id="switch75"><g id="g73" style="fill:#f60;fill-opacity:1"><path class="st0" d="M0 35.9v8h7c-3.4-1.9-5.8-4.8-7-8z" id="path67" style="fill:#f60;fill-opacity:1"/><path class="st0" d="M29.4 27.6c0-7.4-5.9-14.5-14.8-14.8-6.4-.2-11.3 2.1-14.6 5.5V26c2.2-6.5 8.4-9.4 13.6-9.4 6.4.1 11.4 5 11.5 10.5 0 5.3-2.2 9.1-8.1 10.1-3.2.5-8.3-1.4-8.1-6.3.1-2.5 2.1-4 4.3-3.9-2.2 3 .7 5.1 2.8 4.7 2.6-.5 3.6-2.8 3.6-4.6 0-1.9-1.8-4.9-6.1-4.8-5.4.1-8.8 4-8.9 8.8-.1 6 5.5 10 11.3 10.1 8.4.1 13.5-5.4 13.5-13.6z" id="path69" style="fill:#f60;fill-opacity:1"/><path class="st0" d="M0 0v12.6c3.8-2.9 8.7-4.8 14.5-4.8 12.5 0 20.4 8.7 20.4 19.7 0 7.6-3.6 13.4-9.1 16.4H44V0H0z" id="path71" style="fill:#f60;fill-opacity:1"/></g></switch></svg>