<svg xmlns="http://www.w3.org/2000/svg" width="716" viewBox="59.8 80.8 269.846 333.4" height="716"><g fill="#fdc842"><path d="M195.095 99.821c-82 0-148.7 66.7-148.7 148.7 0 82 66.7 148.7 148.7 148.7 82 0 148.7-66.7 148.7-148.7 0-82-66.7-148.7-148.7-148.7z"/><path d="M195.095 415.221c-91.9 0-166.7-74.8-166.7-166.7 0-91.9 74.8-166.7 166.7-166.7 91.9 0 166.7 74.8 166.7 166.7 0 91.9-74.8 166.7-166.7 166.7z"/><path d="m180.495 220.321 43.4 46.8c1.8 1.8 2.9 4.2 2.9 6.7l-3.9 92.8c-.1 7.3 4.7 13.1 11.6 10.7 41-14.3 66.1-36.9 78.5-66.4 1.8-4.2 1.3-9-1.8-12.3l-37.8-40.3c-2.9-3-4.5-7-4.5-11.2l-.3-22.4c0-5.8 4.7-10.4 10.5-10.4l30.3.4c14.3 0 15.5-5.3 13.4-11.1-14.1-39.2-39.6-66.9-78.4-81.5-4.4-1.7-9.2 1.4-9.4 6.1l-2.5 39.5c-.2 4.3-3.7 7.6-7.9 7.6l-21.2-.1c-5.6 0-10.4-2.7-12.7-5l-42.9-42.9c-2.6-2.5-6.4-3.3-9.7-1.8-34.4 15.7-58 41.1-71.8 77-2.1 5.6 2.4 11.5 8.4 11.5l92.3.6c5 .2 9.9 2.2 13.5 5.7zm30.3-24.7c5.9-5.7 20-2.9 29.5 6.9 9.4 9.8 15.1 23.7 6.2 31.1-6.3 5.2-16.7 3.3-27-5.6-11.5-9.8-15.4-25.9-8.7-32.4z"/><path d="M185.361 396.496c-45.316-2.567-88.062-27.37-114.037-66.171-5.87-8.768-13.736-24.977-17.065-35.164-13.799-42.22-8.402-87.695 14.824-124.918 24.304-38.951 64.697-64.174 111.086-69.366 9.799-1.097 30.592-.385 40.261 1.379 47.55 8.671 86.492 37.962 107.836 81.108 27.44 55.468 17.143 122.272-25.787 167.302-30.678 32.178-72.083 48.38-117.118 45.83zm52.878-20.29c34.506-12.501 58.77-32.534 72.376-59.754 3.763-7.53 4.428-11.229 2.669-14.845-.677-1.392-10.17-12.039-21.095-23.66-11.07-11.777-20.536-22.448-21.383-24.108-1.371-2.688-1.553-4.333-1.866-16.854-.328-13.112-.267-14.033 1.11-16.731 1.038-2.034 2.337-3.281 4.519-4.338 2.939-1.422 3.838-1.474 22.35-1.284 17.705.182 19.535.09 22.31-1.121 2.176-.95 3.294-1.97 3.994-3.645.889-2.126.82-2.786-.809-7.681-2.498-7.513-10.496-23.572-15.423-30.97-14.106-21.182-32.133-36.191-56.065-46.68-8.682-3.805-13.09-3.625-15.365.628-.383.714-1.322 11.057-2.086 22.983-1.191 18.567-1.574 21.933-2.665 23.415-2.428 3.297-3.613 3.509-18.449 3.305-13.521-.185-13.927-.233-17.308-2.045-2.402-1.288-10.236-8.66-25.615-24.103-12.184-12.236-22.995-22.695-24.023-23.24-3.203-1.702-5.773-1.16-13.535 2.854-27.395 14.168-45.997 33.105-60.04 61.12-5.299 10.572-6.745 14.974-5.922 18.031.781 2.9 2.864 5.158 5.778 6.262 1.291.49 15.53.76 42.23.802 49.233.078 57.054.407 61.533 2.592 2.55 1.244 8.228 6.959 26.307 26.475 12.681 13.69 23.463 25.742 23.96 26.783.754 1.58.565 9.829-1.14 49.891-1.45 34.057-1.843 48.726-1.352 50.506.381 1.38 1.72 3.535 2.975 4.79 2.835 2.836 5.535 2.975 12.03.622z" style="fill:#212121;fill-opacity:1;stroke-width:2.35492;stroke-miterlimit:2.9;paint-order:stroke fill markers;stop-color:#000"/><path d="M229.823 234.267c-4.605-1.893-10.607-6.316-14.099-10.39-1.328-1.549-3.563-5.136-4.966-7.972-2.308-4.663-2.55-5.691-2.55-10.782 0-5.066.188-5.875 1.895-8.115 2.448-3.213 5.701-4.285 11.392-3.753 14.814 1.383 30.9 19.643 28.943 32.854-.484 3.268-3.413 7.161-6.646 8.833-2.978 1.54-9.329 1.234-13.97-.675z" style="fill:#212121;fill-opacity:1;stroke-width:2.35492;stroke-miterlimit:2.9;paint-order:stroke fill markers;stop-color:#000"/></g></svg>