<svg xmlns="http://www.w3.org/2000/svg" version="1.0" width="48" height="48" viewBox="0 0 106.149 113.079" xml:space="preserve"><g style="stroke:#2e3436"><path style="fill:none;stroke:#2e3436;stroke-width:7.06741333;stroke-miterlimit:4;stroke-dasharray:none" d="M15.556 95.94 4.406 61.143h8.622l4.235 14.7c1.19 4.191 2.278 8.113 3.098 12.45h.153c.877-4.184 1.964-8.315 3.155-12.29l4.437-14.86h8.37L24.748 95.939zM40.187 61.65c2.89-.474 6.665-.773 10.586-.773 6.664 0 11.002 1.24 14.304 3.719 3.622 2.68 5.891 6.971 5.891 13.112 0 6.665-2.43 11.255-5.738 14.088-3.663 3.064-9.29 4.506-16.108 4.506-4.08 0-7.026-.265-8.935-.522V61.65zM48.036 90c.675.153 1.803.153 2.737.153 7.179.056 11.88-3.879 11.88-12.186 0-7.229-4.234-11.046-11.05-11.046-1.7 0-2.891.153-3.566.307zM76.128 61.595c2.06-.356 6.198-.718 10.174-.718 4.806 0 7.743.459 10.335 1.965 2.416 1.287 4.121 3.67 4.121 6.866 0 3.042-1.808 5.884-5.73 7.388v.096c3.977 1.031 6.914 4.082 6.914 8.523 0 3.198-1.441 5.676-3.607 7.425-2.527 2.02-6.76 3.162-13.684 3.162-3.878 0-6.761-.265-8.523-.522V61.595zm7.8 13.33h2.577c4.184 0 6.35-1.707 6.35-4.298 0-2.626-2.006-4.018-5.57-4.018-1.762 0-2.745.097-3.357.202v8.113zm0 15.43c.765.105 1.706.105 3.043.105 3.565 0 6.713-1.394 6.713-5.057 0-3.46-3.148-4.853-7.069-4.853h-2.687v9.805z" transform="matrix(.99066 0 0 .99066 .393 7.998)"/></g><path d="M108.762 26.176c-1.495-12.364-11.41-22.201-23.906-23.754-4.003-.585-8.639-.396-13.854 1.183 0 0-8.695 2.695-15.698 10.554 0 0-2.994 3.516-5.36 6.753-.14.203-.285.397-.425.592-.014 0-2.93 3.864-3.335 4.407-2.49 3.403-5.86 8.069-9.87 11.529-3.023 3.091-7.29 5.018-12.03 5.018-1.846 0-3.62-.298-5.285-.842-3.063-.864-6.419-2.728-8.702-6.621a15.543 15.543 0 0 1-2.584-8.59c0-8.855 7.408-15.936 16.55-16.039 5.672-.063 14.388 1.386 21.204 10.84.07.097.138.202.21.298 0 0 .02.027.007.02-.927-2.583-4.554-14.23-15.123-18.287 0 0-2.554-.982-6.396-1.163-5.215-.23-12.81 1.022-19.64 8.277 0 0-8.11 7.7-7.357 19.563.355 14.934 12.613 26.768 27.441 26.547 3.232.11 6.802-.293 10.695-1.478 0 0 7.874-2.074 15.72-10.511 0 0 2.533-2.965 4.783-5.967.347-.466.681-.925 1.01-1.378.362-.445.73-.898 1.106-1.363 2.764-3.684 11.62-16.09 19.854-18.825 1.692-.62 3.53-.96 5.437-.96 8.75 0 15.853 7.086 15.853 15.83 0 7.909-5.807 15.232-13.395 16.409-.926.16-16.18 2.671-25.738-10.584-.07-.102-.145-.202-.215-.304-.014-.007.062.138.132.382 1.211 3.725 4.72 14.098 15.922 17.697 0 0 2.862.952 7.08.926 5.18-.035 12.407-1.53 18.958-8.034-.003 0 8.832-9.035 6.958-22.11z" style="fill:#ce3131;stroke:#a40000;stroke-width:1.16690052;stroke-miterlimit:4;stroke-dasharray:none" transform="translate(0 4.712)"/><path style="fill:#eeeeec;stroke:none" d="M15.803 98.33 4.758 63.859H13.3l4.195 14.563c1.18 4.152 2.257 8.037 3.07 12.334h.151c.869-4.145 1.946-8.237 3.126-12.176l4.395-14.72h8.292L24.91 98.33h-9.107zM40.205 64.36c2.863-.469 6.603-.765 10.486-.765 6.602 0 10.9 1.228 14.171 3.684 3.588 2.656 5.836 6.906 5.836 12.99 0 6.602-2.407 11.15-5.684 13.956-3.63 3.035-9.203 4.464-15.958 4.464-4.043 0-6.96-.262-8.851-.517V64.36zm7.775 28.085c.669.153 1.786.153 2.711.153 7.112.055 11.77-3.843 11.77-12.073 0-7.161-4.195-10.943-10.948-10.943-1.684 0-2.863.152-3.532.305v22.558h-.001zM75.81 64.306c2.041-.353 6.14-.71 10.079-.71 4.76 0 7.67.453 10.238 1.945 2.393 1.276 4.083 3.636 4.083 6.802 0 3.015-1.792 5.83-5.678 7.32v.095c3.941 1.021 6.85 4.043 6.85 8.443 0 3.168-1.427 5.623-3.572 7.355-2.504 2.001-6.698 3.133-13.557 3.133-3.842 0-6.698-.262-8.444-.517V64.306zm7.727 13.205h2.553c4.145 0 6.29-1.69 6.29-4.257 0-2.602-1.986-3.98-5.518-3.98-1.746 0-2.719.096-3.325.2v8.037zm0 15.287c.758.104 1.69.104 3.015.104 3.531 0 6.65-1.381 6.65-5.01 0-3.427-3.119-4.808-7.003-4.808h-2.662v9.714z" transform="translate(0 4.712)"/></svg>