<svg xml:space="preserve" width="269.31mm" height="1172.603" style="clip-rule:evenodd;fill-rule:evenodd;image-rendering:optimizeQuality;shape-rendering:geometricPrecision;text-rendering:geometricPrecision" viewBox="0 0 26931 31025.131" xmlns="http://www.w3.org/2000/svg"><path d="M17708 16698c-367-148-4122-2460-4790-2861-320-192-1319-878-1622-901-539 221-1210 598-1741 873-782 404-5162 2600-5272 2731 263 223 5806 3585 6585 4090l46 3c249-99 607-327 849-473 287-173 532-311 829-480l4214-2435c232-136 637-397 878-495 972 435 6384 3789 6808 3882 254-109 4415-2728 4970-3055l1687-1055v-12l-7074-3618-99-7c-39 44-25 33-95 89-14 11-85 58-102 69l-612 367c-1325 798-4368 2711-5459 3288z" style="fill:#ec1c24" transform="translate(-4218 -1930)"/><path d="m17678 24831 14 8116c72 37 157-57 351-186l2112-1323c1105-653 3208-2012 4245-2678 291-187 545-330 840-523 152-100 267-159 404-250l2136-1353c289-187 550-328 840-523 286-192 551-355 837-526 141-84 1529-946 1692-1087-248-104-588-321-838-470-292-174-530-310-828-480-492-281-4736-2763-4991-2873-227 81-681 394-894 525-299 184-553 344-837 523-399 252-4848 3036-5082 3108z" style="fill:#c83e40" transform="translate(-4218 -1930)"/><path d="M4219 24497c71 63-32-15 89 76 37 28 56 41 97 67l4819 3031c1589 994 3511 2156 5058 3173 291 191 564 341 840 523 138 91 252 150 404 250l1705 1076c169 100 273 208 462 255l-14-8116c-335-165-4566-2820-5087-3144-346-215-1429-853-1677-1055l-46-3c-196 229-2817 1660-3323 1962-543 324-1107 645-1658 958-512 290-1166 731-1667 948z" style="fill:#d34844" transform="translate(-4218 -1930)"/><path d="m17682 9673 6294 3212 99 7 7074-4280c-149-145-9391-4672-10067-5010-484-242-3136-1612-3404-1672Z" style="fill:#f6a399" transform="translate(-4218 -1930)"/><path d="M4219 8612c238 109 3261 1949 3562 2131 479 291 3332 1965 3513 2142 313-51 2699-1326 3180-1574 511-263 1009-535 1543-797 487-239 1131-615 1604-798l62-43-4-7743c-234 58-3060 1506-3356 1654L7582 6927c-545 273-1145 612-1679 828-285 115-1532 711-1682 857z" style="fill:#e58a8d" transform="translate(-4218 -1930)"/><path d="M4219 24497c501-217 1155-658 1667-948 552-313 1115-634 1658-958 506-302 3127-1733 3323-1962-779-505-6322-3867-6585-4090 110-130 4490-2327 5272-2731 531-274 1202-652 1741-873l-2-51c-181-177-3034-1851-3513-2142-301-183-3324-2023-3562-2131v15886z" style="fill:#e75c59" transform="translate(-4218 -1930)"/><path style="fill:#eb605a" d="m31149 8611-7074 4281 7074 3618z" transform="translate(-4218 -1930)"/><path d="M17678 24831c234-71 4683-2856 5082-3108 285-180 539-339 837-523 213-131 666-445 894-525v-43c-423-93-5835-3448-6808-3882l-6 8082z" style="fill:#d62027" transform="translate(-4218 -1930)"/><path d="M10914 20632c248 202 1331 840 1677 1055 521 324 4752 2979 5087 3144l6-8082c-241 98-645 359-878 495l-4214 2435c-297 168-542 307-829 480-242 146-601 375-849 473z" style="fill:#dc2326" transform="translate(-4218 -1930)"/><path d="M24491 20632v43c255 110 4499 2593 4991 2873 298 170 536 306 828 480 250 149 590 366 838 470v-7977l-1687 1055c-555 327-4715 2946-4970 3055z" style="fill:#ea6059" transform="translate(-4218 -1930)"/><path d="M17708 16698c1091-577 4134-2490 5459-3288l612-367c17-11 88-58 102-69 70-56 55-45 95-89l-6294-3212-62 43c189 277-45 6017 88 6982z" style="fill:#ef4643" transform="translate(-4218 -1930)"/><path d="m11294 12885 2 51c304 22 1303 708 1622 901 668 401 4424 2714 4790 2861-133-965 101-6704-88-6982-473 183-1116 559-1604 798-534 262-1032 534-1543 797-480 247-2867 1522-3180 1574z" style="fill:#e6323b" transform="translate(-4218 -1930)"/></svg>