<svg width="227.187" height="227.182" viewBox="0 0 170.391 170.387" xmlns="http://www.w3.org/2000/svg"><path style="fill:#fff;fill-opacity:1;fill-rule:nonzero;stroke:none" d="M200.031 114.402c-47.054 0-85.195 38.141-85.195 85.196 0 47.05 38.14 85.191 85.195 85.191 47.051 0 85.196-38.14 85.196-85.191 0-47.055-38.145-85.196-85.196-85.196m-35.062 18.59c5.758-6.48 15.52-11.547 28.617-12.808 2.129-.176 4.266-.325 6.441-.325 21.446 0 40.774 8.926 54.575 23.235-1.93-.64-4.63-1.516-9.801-1.516-42.016 0-56.274 82.98-68.867 82.695-8.34.286-36.872-62.125-10.965-91.28m35.058 138.616c-41.914 0-75.875-33.972-75.875-75.875 0-24.488 11.657-46.218 29.668-60.093-30.34 34.273 3.575 108.09 23.14 110.082 24.376 1.504 33.602-75.516 62.231-85.383 21.48-8.063 37.739 24.101 27.926 60.355-9.96 30.832-35.398 50.371-67.09 50.914m1.785-130.941c11.981 0 21.786-3.016 21.868-6.7.101-3.698-9.575-6.698-21.575-6.698-12-.024-21.773 2.972-21.886 6.671-.082 3.688 9.597 6.727 21.593 6.727" transform="translate(-114.836 -114.402)"/></svg>